<svg xmlns="http://www.w3.org/2000/svg" viewBox="0 0 800 600" width="800" height="600" role="img">
  <rect width="800" height="600" fill="#ece9e1"/>
  <rect x="120" y="120" width="560" height="360" rx="18" fill="#f4f3ee" stroke="#131417" stroke-width="6"/>
  <path d="M264 120v360" stroke="#131417" stroke-width="6" opacity="0.5"/>
  <g fill="#131417" opacity="0.25">
    <rect x="156" y="164" width="76" height="12" rx="6"/>
    <rect x="156" y="198" width="76" height="12" rx="6"/>
    <rect x="156" y="232" width="56" height="12" rx="6"/>
  </g>
  <g stroke="#131417" stroke-width="6" opacity="0.35">
    <path d="M300 300h344M300 348h344M300 396h344"/>
  </g>
  <g fill="#131417">
    <rect x="300" y="180" width="34" height="80" rx="6" opacity="0.55"/>
    <rect x="352" y="212" width="34" height="48" rx="6" opacity="0.55"/>
  </g>
  <rect x="404" y="156" width="34" height="104" rx="6" fill="#F5921E"/>
  <g fill="#131417" opacity="0.55">
    <rect x="456" y="200" width="34" height="60" rx="6"/>
    <rect x="508" y="172" width="34" height="88" rx="6"/>
  </g>
  <g fill="#131417" opacity="0.3">
    <circle cx="318" cy="300" r="12"/>
    <circle cx="318" cy="348" r="12"/>
    <circle cx="318" cy="396" r="12"/>
  </g>
</svg>
