<svg width="1080" height="1080" viewBox="0 0 1080 1080" fill="none" xmlns="http://www.w3.org/2000/svg">
<path fill-rule="evenodd" clip-rule="evenodd" d="M269.619 471.652C276.74 506.185 307.786 552.277 336.083 570.324C401.148 611.818 486.215 573.552 492.549 499.941C494.791 473.921 493.65 470.379 479.577 459.715C460.705 445.41 448.352 444.955 431.694 457.954C422.746 464.93 418.728 474.192 418.194 489.043C417.559 506.695 414.979 511.027 402.643 515.209C381.983 522.212 361.116 507.924 352.764 481.06C333.627 419.505 391.212 359.255 468.697 359.759C548.374 360.273 606.531 424.184 605.683 510.302C605.036 576.228 581.544 613.789 511 661.701C461.469 695.341 432.211 727.02 400.991 780.825C365.78 841.491 350.449 931.2 363.909 997.76L368.287 1019.42L372.3 997.76C381.022 950.709 389.424 925.795 408.842 889.436C438.826 833.28 482.82 794.024 575.53 740.696C664.014 689.8 702.788 655.483 729.056 604.825C752.116 560.358 759.849 519.91 756.46 461.556C753.217 405.731 738.184 365.922 697.848 306.339C663.419 255.486 650.633 224.836 649.391 190.199C648.379 161.878 649.514 159.099 669.308 141.605C685.045 127.691 695.341 123.044 710.426 123.044C750.525 123.044 766.133 145.553 738.24 163.167C719.305 175.126 718.996 200.755 737.644 212.535C755.977 224.11 776.384 218.239 797.19 195.404C811.274 179.946 814.112 172.196 814.112 149.22C814.112 94.7601 772.984 60.7843 707.329 61.001C664.571 61.1418 644.917 69.6833 605.463 105.246C560.547 145.732 543.838 214.106 561.924 283.336C565.414 296.687 566.667 309.15 564.712 311.04C558.524 316.998 519.868 283.092 498.085 252.599C463.554 204.254 451.966 133.914 468.972 75.863C472.26 64.6352 471.355 64.2021 454.332 68.9087C419.807 78.4467 389.003 104.764 369.023 141.784C355.22 167.359 352.916 220.665 364.454 247.508C371.406 263.686 371.114 266.01 361.279 272.888C329.693 294.965 313.923 309.312 300.058 328.588C270.873 369.183 259.509 422.592 269.619 471.652Z" fill="#16A34A"/>
</svg>
